<svg xmlns="http://www.w3.org/2000/svg" version="1.1" xmlns:xlink="http://www.w3.org/1999/xlink" xmlns:svgjs="http://svgjs.dev/svgjs" viewBox="0 0 800 800"><defs><filter id="uuunion-blur" x="-100%" y="-100%" width="400%" height="400%" color-interpolation-filters="sRGB">
        <feGaussianBlur in="SourceGraphic" stdDeviation="7.5 0" result="blur"></feGaussianBlur>
        <feDropShadow stdDeviation="12.307692307692308" in="blur" dx="10" dy="10" flood-color="#caada6" flood-opacity="0.25" x="0%" y="0%" width="100%" height="100%"></feDropShadow>
      </filter><filter id="uuunion-blur2" x="-100%" y="-100%" width="400%" height="400%" color-interpolation-filters="sRGB">
        <feGaussianBlur in="SourceGraphic" stdDeviation="7.5 0" result="blur"></feGaussianBlur>
        <feDropShadow stdDeviation="12.307692307692308" in="blur" dx="-10" dy="-10" flood-color="#caada6" flood-opacity="0.25" x="0%" y="0%" width="100%" height="100%"></feDropShadow>
      </filter><linearGradient gradientTransform="rotate(0, 0.5, 0.5)" x1="50%" y1="0%" x2="50%" y2="100%" id="uuunion-grad"><stop stop-color="#494f69" offset="10%"></stop><stop stop-color="#caada6" offset="90%"></stop></linearGradient><linearGradient gradientTransform="rotate(135, 0.5, 0.5)" x1="50%" y1="0%" x2="50%" y2="100%" id="uuunion-grad2"><stop stop-color="#494f69" offset="25%"></stop><stop stop-color="#caada6" offset="100%"></stop></linearGradient><linearGradient gradientTransform="rotate(333, 0.5, 0.5)" x1="50%" y1="0%" x2="50%" y2="100%" id="uuunion-grad3"><stop stop-color="#494f69" offset="0%"></stop><stop stop-color="#caada6" offset="75%"></stop></linearGradient></defs><path d="M-79.27 -80.54Q-64.53 -77.87 -49.79 -75.39 -35.05 -73.35 -20.31 -71.92 -5.57 -71.24 9.17 -71.38 23.91 -72.32 38.65 -73.97 53.39 -76.18 68.13 -78.75 82.87 -81.43 97.61 -83.98 112.35 -86.16 127.09 -87.77 141.84 -88.65 156.58 -88.73 171.32 -87.99 186.06 -86.52 200.8 -84.43 215.54 -81.94 230.28 -79.26 245.02 -76.65 259.76 -74.35 274.51 -72.58 289.25 -71.5 303.99 -71.2 318.73 -71.73 333.47 -73.02 348.21 -74.96 362.95 -77.37 377.69 -80.02 392.44 -82.67 407.18 -85.08 421.92 -87 436.66 -88.28 451.4 -88.79 466.14 -88.48 480.88 -87.38 495.62 -85.59 510.36 -83.29 525.11 -80.67 539.85 -78 554.59 -75.51 569.33 -73.44 584.07 -71.97 598.81 -71.26 613.55 -71.35 628.29 -72.25 643.03 -73.87 657.78 -76.06 672.52 -78.61 687.26 -81.3 702 -83.86 716.74 -86.06 731.48 -87.7 746.22 -88.62 760.96 -88.74 775.7 -88.05 790.45 -86.61 805.19 -84.55 819.93 -82.07 834.67 -79.4 849.41 -76.78 864.15 -74.46 857.79 -59.32 855.93 -44.18 858.96 -29.03 866.27 -13.89 876.36 1.24 887.19 16.38 896.56 31.52 902.56 46.66 903.98 61.81 900.54 76.95 892.92 92.09 882.67 107.23 871.88 122.37 862.74 137.51 857.11 152.65 856.12 167.8 859.98 182.94 867.9 198.08 878.28 213.22 889.01 228.36 897.91 243.5 903.17 258.65 903.72 273.79 899.46 288.93 891.24 304.07 880.74 319.21 870.09 334.35 861.45 349.49 856.57 364.64 856.46 379.78 861.12 394.92 869.62 410.06 880.22 425.2 890.78 440.34 899.15 455.49 903.63 470.63 903.3 485.77 898.25 500.91 889.49 516.05 878.8 531.19 868.35 546.33 860.27 561.48 856.19 576.62 856.95 591.76 862.39 606.9 871.4 622.04 882.16 637.18 892.48 652.33 900.26 667.47 903.93 682.61 902.74 697.75 896.93 712.89 887.68 728.03 876.87 743.18 866.69 758.32 859.22 773.46 855.97 788.6 857.59 803.74 863.77 818.88 873.24 834.02 884.08 849.17 894.09 864.31 894.96 883.96 873.29 881.58 857.9 874.53 842.5 867.99 827.11 862.56 811.72 858.76 796.32 856.93 780.93 857.25 765.54 859.68 750.14 864 734.75 869.81 719.36 876.56 703.96 883.64 688.57 890.37 673.18 896.14 657.78 900.41 642.39 902.78 627 903.04 611.6 901.15 596.21 897.29 580.82 891.82 565.42 885.26 550.03 878.21 534.64 871.32 519.24 865.24 503.85 860.53 488.45 857.63 473.06 856.81 457.67 858.15 442.27 861.52 426.88 866.6 411.49 872.93 396.09 879.92 380.7 886.92 365.31 893.27 349.91 898.39 334.52 901.79 319.13 903.17 303.73 902.4 288.34 899.54 272.95 894.87 257.55 888.81 242.16 881.93 226.77 874.87 211.37 868.29 195.98 862.8 180.58 858.91 165.19 856.97 149.8 857.18 134.4 859.51 119.01 863.74 103.62 869.49 88.22 876.21 72.83 883.28 57.44 890.05 42.04 895.88 26.65 900.24 11.26 902.71 -4.13 903.07 -19.52 901.29 -34.91 897.52 -50.31 892.13 -65.7 885.61 -81.09 878.56 -80.96 863.57 -80.64 848.59 -80.18 833.6 -79.69 818.62 -79.25 803.63 -78.97 788.64 -78.9 773.66 -79.05 758.67 -79.39 743.69 -79.85 728.7 -80.35 713.71 -80.77 698.73 -81.03 683.74 -81.09 668.76 -80.92 653.77 -80.56 638.78 -80.09 623.8 -79.6 608.81 -79.19 593.83 -78.94 578.84 -78.91 563.85 -79.09 548.87 -79.46 533.88 -79.94 518.89 -80.43 503.91 -80.83 488.92 -81.06 473.94 -81.07 458.95 -80.87 443.96 -80.49 428.98 -80.01 413.99 -79.52 399.01 -79.13 384.02 -78.92 369.03 -78.93 354.05 -79.15 339.06 -79.54 324.08 -80.03 309.09 -80.51 294.1 -80.88 279.12 -81.08 264.13 -81.05 249.15 -80.81 234.16 -80.41 219.17 -79.92 204.19 -79.44 189.2 -79.08 174.21 -78.91 159.23 -78.95 144.24 -79.21 129.26 -79.62 114.27 -80.12 99.28 -80.58 84.3 -80.93 69.31 -81.09 54.33 -81.02 39.34 -80.75 24.35 -80.32 9.37 -79.83 -5.61 -79.37 -20.59 -79.04 -35.58 -78.9 -50.57 -78.98 -65.55 -79.27 -80.54" fill="url(#uuunion-grad)"></path><path d="M-79.27 -80.54Q-78.98 -65.55 -78.9 -50.57 -79.04 -35.58 -79.37 -20.59 -79.83 -5.61 -80.32 9.37 -80.75 24.35 -81.02 39.34 -81.09 54.33 -80.93 69.31 -80.58 84.3 -80.12 99.28 -79.62 114.27 -79.21 129.26 -78.95 144.24 -78.91 159.23 -79.08 174.21 -79.44 189.2 -79.92 204.19 -80.41 219.17 -80.81 234.16 -81.05 249.15 -81.08 264.13 -80.88 279.12 -80.51 294.1 -80.03 309.09 -79.54 324.08 -79.15 339.06 -78.93 354.05 -78.92 369.03 -79.13 384.02 -79.52 399.01 -69.63 402.26 -59.75 405.43 -49.86 408.36 -39.97 410.95 -30.09 413.09 -20.2 414.68 -1.67 415.9 1.53 415.98 13.64 408.96 25.67 400.98 37.67 392.15 49.66 382.65 61.68 372.71 73.78 362.55 85.99 352.43 98.34 342.61 110.86 333.3 123.56 324.7 136.46 316.95 149.56 310.14 162.85 304.28 176.29 299.34 189.88 295.23 203.55 291.8 217.26 288.86 230.96 286.19 244.6 283.55 258.1 280.72 271.42 277.48 284.51 273.64 297.31 269.05 309.8 263.62 321.95 257.3 333.75 250.12 345.2 242.14 356.32 233.49 367.15 224.33 377.74 214.85 388.15 205.26 398.44 195.79 408.71 186.63 419.03 177.97 429.5 169.95 440.2 162.68 451.21 156.22 462.61 150.56 474.46 145.66 486.79 141.41 499.65 137.69 513.03 134.31 526.93 131.09 541.31 127.84 556.12 124.35 571.29 120.47 586.74 116.03 602.35 110.94 618.02 105.13 633.63 98.59 649.05 91.34 664.17 83.46 678.87 75.06 693.06 66.3 706.66 57.34 719.59 48.35 731.83 39.52 743.36 31 754.18 22.94 764.34 15.44 773.9 8.57 782.95 2.37 791.61 -3.18 800 -8.14 788.87 -25.43 780.8 -42.71 778 -60 781.24 -77.29 789.64 -94.57 800.88 -111.86 811.88 -129.15 819.61 -146.43 804.35 -147.51 789.1 -147.89 773.84 -147.56 758.59 -146.52 743.33 -144.89 728.08 -142.81 712.82 -140.47 697.57 -138.08 682.31 -135.88 667.06 -134.05 651.8 -132.76 636.55 -132.14 621.29 -132.24 606.04 -133.06 590.78 -134.51 575.53 -136.46 560.27 -138.74 545.02 -141.13 529.76 -143.42 514.51 -145.4 499.25 -146.88 484 -147.72 468.74 -147.86 453.49 -147.27 438.23 -146.02 422.98 -144.21 407.72 -142.02 392.47 -139.64 377.21 -137.29 361.96 -135.19 346.7 -133.53 331.45 -132.47 316.19 -132.1 300.94 -132.45 285.68 -133.49 270.43 -135.14 255.17 -137.22 239.92 -139.57 224.66 -141.95 209.41 -144.15 194.15 -145.97 178.89 -147.25 163.64 -147.85 148.38 -147.74 133.13 -146.91 117.87 -145.45 102.62 -143.49 87.36 -141.2 72.11 -138.81 56.85 -136.53 41.6 -134.56 26.34 -133.09 11.09 -132.26 -4.16 -132.14 -19.41 -132.73 -34.67 -134 -49.92 -135.82 -65.18 -138.02 -80.43 -140.4 -95.69 -142.74 -110.94 -144.84 -126.2 -146.48 -135.68 -134.2 -117.39 -116.08 -107.68 -107.47 -98.08 -98.64 -88.61 -89.65 -79.27 -80.54" fill="url(#uuunion-grad2)" filter="url(#uuunion-blur)"></path><path d="M790.52 386.96Q800.41 389.11 810.3 391.71 820.18 394.66 830.07 397.83 839.96 401.09 849.84 404.3 859.73 407.33 869.62 410.06 880.22 425.2 890.78 440.34 899.15 455.49 903.63 470.63 903.3 485.77 898.25 500.91 889.49 516.05 878.8 531.19 868.35 546.33 860.27 561.48 856.19 576.62 856.95 591.76 862.39 606.9 871.4 622.04 882.16 637.18 892.48 652.33 900.26 667.47 903.93 682.61 902.74 697.75 896.93 712.89 887.68 728.03 876.87 743.18 866.69 758.32 859.22 773.46 855.97 788.6 857.59 803.74 863.77 818.88 873.24 834.02 884.08 849.17 894.09 864.31 895.6 884.23 875.83 882.74 861.7 876.24 847.57 870.04 833.44 864.62 819.32 860.41 805.19 857.73 791.06 856.8 776.94 857.68 762.81 860.32 748.68 864.49 734.56 869.89 720.43 876.07 706.3 882.57 692.18 888.86 678.05 894.45 663.92 898.92 649.8 901.9 635.67 903.16 621.54 902.61 607.42 900.28 593.29 896.36 579.16 891.16 565.04 885.09 550.91 878.61 536.78 872.24 522.66 866.49 508.53 861.79 494.4 858.51 480.28 856.93 466.15 857.15 452.02 859.16 437.9 862.81 423.77 867.8 409.64 873.75 395.52 880.19 381.39 886.61 367.26 892.52 353.14 897.44 339.01 901 324.88 902.91 310.76 903.02 296.63 901.33 282.5 897.96 268.38 893.19 254.25 887.38 240.12 880.99 226 874.53 211.87 868.49 197.74 863.36 183.62 859.53 169.49 857.3 155.36 856.85 141.24 858.22 127.11 861.3 112.98 865.84 98.86 871.49 84.73 877.81 70.6 884.3 56.47 890.45 42.35 895.78 28.22 899.88 7 897.73 -0.22 882.89 -0.43 872.74 -0.69 862.59 -0.98 852.44 -1.27 842.29 -1.4 827.07 -0.77 822 11.32 814.94 23.41 806.53 35.52 796.91 47.69 786.31 59.95 775.01 72.33 763.36 84.86 751.69 97.56 740.37 110.44 729.71 123.5 720 136.72 711.45 150.1 704.19 163.6 698.28 177.17 693.69 190.79 690.3 204.39 687.91 217.92 686.26 231.32 685.05 244.55 683.96 257.55 682.64 270.29 680.78 282.73 678.11 294.85 674.4 306.65 669.49 318.12 663.31 329.3 655.88 340.21 647.26 350.91 637.64 361.45 627.24 371.91 616.32 382.35 605.21 392.87 594.21 403.55 583.63 414.47 573.75 425.7 564.78 437.32 556.91 449.37 550.22 461.89 544.72 474.91 540.36 488.43 537.01 502.44 534.47 516.9 532.48 531.74 530.77 546.91 529.05 562.31 527.02 577.84 524.41 593.39 520.99 608.84 516.6 624.08 511.11 639 504.5 653.49 496.8 667.47 488.1 680.84 478.6 693.57 468.49 705.63 458.04 716.99 447.52 727.69 437.2 737.76 427.36 747.29 418.2 756.35 409.92 765.07 402.64 773.58 396.4 786.27 389.08 790.52 386.96" fill="url(#uuunion-grad3)" filter="url(#uuunion-blur2)"></path></svg>